<?xml version="1.0" encoding="UTF-8"?>
<svg id="Layer_1" data-name="Layer 1" xmlns="http://www.w3.org/2000/svg" xmlns:xlink="http://www.w3.org/1999/xlink" viewBox="0 0 595.28 402.35">
  <defs>
    <style>
      .cls-1 {
        fill: url(#linear-gradient-2);
      }

      .cls-2 {
        fill: url(#linear-gradient-3);
      }

      .cls-2, .cls-3, .cls-4, .cls-5, .cls-6, .cls-7, .cls-8, .cls-9, .cls-10, .cls-11 {
        stroke: #000;
        stroke-miterlimit: 10;
      }

      .cls-2, .cls-3, .cls-4, .cls-5, .cls-7, .cls-8, .cls-10, .cls-11 {
        stroke-width: .5px;
      }

      .cls-3 {
        fill: url(#linear-gradient-8);
      }

      .cls-4 {
        fill: url(#linear-gradient-5);
      }

      .cls-12 {
        fill: #a77c35;
      }

      .cls-5 {
        fill: url(#linear-gradient-7);
      }

      .cls-13 {
        fill: url(#linear-gradient-11);
      }

      .cls-6 {
        stroke-width: .3px;
      }

      .cls-6, .cls-14 {
        fill: #e7be4c;
      }

      .cls-15 {
        fill: #f7d563;
      }

      .cls-16 {
        fill: #b58b3d;
      }

      .cls-7 {
        fill: url(#linear-gradient-10);
      }

      .cls-8 {
        fill: url(#linear-gradient-9);
      }

      .cls-17 {
        fill: #fff;
        filter: url(#drop-shadow-1);
      }

      .cls-9 {
        fill: #d3d3d3;
        stroke-width: .25px;
      }

      .cls-10 {
        fill: url(#linear-gradient-4);
      }

      .cls-18 {
        fill: url(#linear-gradient);
      }

      .cls-11 {
        fill: url(#linear-gradient-6);
      }

      .cls-19 {
        fill: #231f20;
      }

      .cls-20 {
        fill: #fee78d;
      }
    </style>
    <linearGradient id="linear-gradient" x1="309.12" y1="159.12" x2="566.69" y2="159.12" gradientUnits="userSpaceOnUse">
      <stop offset="0" stop-color="#fff"/>
      <stop offset=".01" stop-color="#fdfdfd"/>
      <stop offset=".24" stop-color="#dedede"/>
      <stop offset=".43" stop-color="#cacaca"/>
      <stop offset=".56" stop-color="#c4c4c4"/>
      <stop offset=".69" stop-color="#c7c7c7"/>
      <stop offset=".79" stop-color="#d1d1d1"/>
      <stop offset=".89" stop-color="#e3e3e3"/>
      <stop offset=".99" stop-color="#fcfcfc"/>
      <stop offset="1" stop-color="#fff"/>
    </linearGradient>
    <linearGradient id="linear-gradient-2" x1="303.54" y1="152.58" x2="560.68" y2="152.58" gradientTransform="translate(279.54 584.69) rotate(-90)" xlink:href="#linear-gradient"/>
    <linearGradient id="linear-gradient-3" x1="53.9" y1="198.29" x2="53.35" y2="276.91" xlink:href="#linear-gradient"/>
    <linearGradient id="linear-gradient-4" x1="130.86" y1="198.06" x2="130.31" y2="276.86" xlink:href="#linear-gradient"/>
    <linearGradient id="linear-gradient-5" x1="203.22" y1="196.69" x2="202.65" y2="278.22" xlink:href="#linear-gradient"/>
    <linearGradient id="linear-gradient-6" x1="255.45" y1="198.19" x2="254.9" y2="276.73" xlink:href="#linear-gradient"/>
    <linearGradient id="linear-gradient-7" x1="312.72" y1="196.67" x2="312.15" y2="278.19" xlink:href="#linear-gradient"/>
    <linearGradient id="linear-gradient-8" x1="395.58" y1="198.01" x2="395.03" y2="276.9" xlink:href="#linear-gradient"/>
    <linearGradient id="linear-gradient-9" x1="471.08" y1="198.06" x2="470.52" y2="276.86" xlink:href="#linear-gradient"/>
    <linearGradient id="linear-gradient-10" x1="545.41" y1="198.28" x2="544.86" y2="276.87" xlink:href="#linear-gradient"/>
    <linearGradient id="linear-gradient-11" x1="521.27" y1="213.66" x2="569.01" y2="213.66" gradientUnits="userSpaceOnUse">
      <stop offset="0" stop-color="#fff"/>
      <stop offset=".01" stop-color="#fdfdfd"/>
      <stop offset=".37" stop-color="#dedede"/>
      <stop offset=".67" stop-color="#cacaca"/>
      <stop offset=".88" stop-color="#c4c4c4"/>
    </linearGradient>
    <filter id="drop-shadow-1" filterUnits="userSpaceOnUse">
      <feOffset dx="6.7" dy="6.7"/>
      <feGaussianBlur result="blur" stdDeviation=".56"/>
      <feFlood flood-color="#000" flood-opacity=".76"/>
      <feComposite in2="blur" operator="in"/>
      <feComposite in="SourceGraphic"/>
    </filter>
  </defs>
  <path class="cls-18" d="M566.69,135.58v45.96c0,4-3.25,7.26-7.26,7.26h-243.37c-3.25,0-6.01-2.14-6.94-5.1,.5,.13,1.02,.23,1.54,.25,.92,2.06,3,3.51,5.4,3.51h243.37c3.25,0,5.92-2.67,5.92-5.92v-45.96c0-1.81-.82-3.43-2.1-4.53v-1.62c2.06,1.26,3.44,3.55,3.44,6.15Z"/>
  <path class="cls-1" d="M407.42,24.01h49.4c2.44,0,4.42,1.98,4.42,4.42v248.3c0,2.44-1.98,4.42-4.42,4.42h-49.4c-2.44,0-4.42-1.98-4.42-4.42V28.43c0-2.44,1.98-4.42,4.42-4.42Z" transform="translate(584.69 -279.54) rotate(90)"/>
  <rect class="cls-19" x="306.24" y="126.16" width="251.74" height="52.84" rx="2.42" ry="2.42"/>
  <path class="cls-6" d="M26.61,142.61H14.17v-3.26h30.27v3.26h-12.5v26.49h-5.34v-26.49Z"/>
  <path class="cls-6" d="M82.29,153.91c0,10.24-8.55,15.67-18.99,15.67s-18.38-6.09-18.38-15.1c0-9.45,8.07-15.62,18.99-15.62s18.38,6.22,18.38,15.05Zm-31.73,.49c0,6.36,4.73,12.05,13.05,12.05s13.11-5.61,13.11-12.36c0-5.91-4.25-12.09-13.05-12.09s-13.11,5.87-13.11,12.4Z"/>
  <path class="cls-6" d="M89.12,139.7c2.55-.31,5.88-.57,10.13-.57,5.22,0,9.04,.88,11.47,2.47,2.24,1.41,3.58,3.57,3.58,6.23s-1.09,4.81-3.15,6.36c-2.79,2.16-7.34,3.27-12.5,3.27-1.58,0-3.03-.05-4.25-.27v11.92h-5.28v-29.4Zm5.28,14.35c1.15,.22,2.61,.31,4.37,.31,6.37,0,10.25-2.25,10.25-6.36s-3.82-5.82-9.65-5.82c-2.3,0-4.06,.13-4.97,.31v11.56Z"/>
  <path class="cls-6" d="M134.23,139.74c2.67-.4,6.49-.62,10.13-.62,5.64,0,9.28,.75,11.83,2.43,2.06,1.33,3.21,3.35,3.21,5.65,0,3.93-3.4,6.53-7.71,7.59v.13c3.15,.79,5.04,2.91,6.01,6,1.33,4.15,2.3,7.02,3.15,8.17h-5.46c-.67-.84-1.58-3.4-2.73-7.11-1.21-4.11-3.4-5.65-8.19-5.78h-4.97v12.89h-5.28v-29.35Zm5.28,13.55h5.4c5.64,0,9.22-2.25,9.22-5.65,0-3.84-3.82-5.52-9.4-5.56-2.55,0-4.37,.18-5.22,.35v10.86Z"/>
  <path class="cls-6" d="M173.76,159.74l-4.25,9.36h-5.46l13.89-29.75h6.37l13.95,29.75h-5.64l-4.37-9.36h-14.5Zm13.41-3l-4-8.56c-.91-1.94-1.52-3.71-2.12-5.43h-.12c-.61,1.77-1.27,3.57-2.06,5.39l-4,8.61h12.31Z"/>
  <path class="cls-6" d="M207.35,142.61h-12.44v-3.26h30.28v3.26h-12.5v26.49h-5.34v-26.49Z"/>
  <path class="cls-6" d="M250.89,155.15h-15.89v10.72h17.72v3.22h-23v-29.75h22.08v3.22h-16.81v9.4h15.89v3.18Z"/>
  <path class="cls-6" d="M259.55,139.74c3.21-.35,7.04-.62,11.22-.62,7.58,0,12.99,1.28,16.57,3.71,3.64,2.43,5.76,5.87,5.76,10.68s-2.06,8.83-5.88,11.56c-3.82,2.78-10.13,4.28-18.08,4.28-3.76,0-6.92-.13-9.58-.35v-29.27Zm5.28,26.31c1.33,.18,3.27,.22,5.34,.22,11.28,0,17.41-4.59,17.41-12.63,.06-7.02-5.4-11.47-16.56-11.47-2.73,0-4.79,.17-6.19,.4v23.48Z"/>
  <g>
    <path class="cls-2" d="M86.12,216.63c-3.43-5.83-8.19-10.34-14.29-13.55-6.09-3.21-13.16-4.82-21.19-4.82H16.26v78.39H50.65c8.03,0,15.1-1.61,21.19-4.82,6.1-3.21,10.86-7.75,14.29-13.6,3.43-5.86,5.14-12.78,5.14-20.78s-1.71-15.01-5.14-20.82Zm-18.23,32.41c-1.74,3.25-4.14,5.71-7.22,7.39-3.08,1.67-6.71,2.52-10.85,2.52h-12.98v-43.01h12.98c4.14,0,7.77,.84,10.85,2.52,3.08,1.67,5.48,4.13,7.22,7.33,1.73,3.21,2.59,7.1,2.59,11.65s-.86,8.35-2.59,11.59Z"/>
    <polygon class="cls-10" points="161.11 259.52 161.11 276.65 100.06 276.65 100.06 198.27 159.69 198.27 159.69 215.4 121.36 215.4 121.36 228.61 155.13 228.61 155.13 245.18 121.36 245.18 121.36 259.52 161.11 259.52"/>
    <path class="cls-4" d="M235.63,252.92c0,4.55-1.25,8.74-3.75,12.59-2.5,3.85-6.23,6.94-11.19,9.24-4.97,2.31-11.21,3.47-18.74,3.47-6.22,0-12.21-.8-17.97-2.4s-10.44-3.68-14.06-6.22l7.06-16.35c3.4,2.24,7.33,4.09,11.78,5.55,4.45,1.46,8.89,2.19,13.31,2.19,2.97,0,5.36-.28,7.18-.84,1.81-.57,3.13-1.31,3.97-2.24,.82-.93,1.24-2.04,1.24-3.31,0-1.79-.8-3.21-2.39-4.25-1.59-1.05-3.66-1.9-6.19-2.58s-5.34-1.35-8.42-2.01c-3.08-.67-6.15-1.54-9.23-2.58-3.08-1.05-5.88-2.42-8.42-4.09-2.54-1.69-4.6-3.89-6.19-6.61s-2.39-6.18-2.39-10.35c0-4.71,1.26-8.96,3.75-12.78,2.5-3.81,6.25-6.87,11.24-9.18,4.99-2.32,11.23-3.47,18.69-3.47,4.99,0,9.89,.58,14.71,1.73,4.82,1.16,9.11,2.86,12.87,5.1l-6.63,16.46c-3.62-2.02-7.21-3.54-10.75-4.53-3.55-1.01-6.99-1.51-10.32-1.51-2.97,0-5.36,.31-7.17,.94-1.81,.63-3.12,1.48-3.91,2.52-.8,1.04-1.19,2.24-1.19,3.59,0,1.71,.78,3.08,2.33,4.08,1.55,1.01,3.62,1.84,6.19,2.47,2.56,.63,5.4,1.28,8.47,1.96,3.08,.67,6.15,1.51,9.23,2.52,3.08,1.01,5.88,2.35,8.42,4.03,2.54,1.67,4.57,3.87,6.14,6.6,1.55,2.73,2.33,6.15,2.33,10.26Z"/>
    <rect class="cls-11" x="244.42" y="198.27" width="21.51" height="78.39"/>
    <path class="cls-5" d="M329.58,235.78h19.01v32.48c-4.35,3.2-9.39,5.67-15.1,7.38-5.72,1.71-11.34,2.58-16.84,2.58-6,0-11.59-.99-16.73-2.97-5.14-1.97-9.57-4.79-13.31-8.45-3.72-3.66-6.64-7.97-8.74-12.94-2.09-4.97-3.14-10.43-3.14-16.41s1.05-11.43,3.14-16.4c2.11-4.97,5.03-9.28,8.8-12.94,3.76-3.66,8.24-6.48,13.41-8.45,5.18-1.98,10.85-2.97,17-2.97,7.17,0,13.58,1.23,19.23,3.7,5.65,2.46,10.32,6,14.01,10.63l-13.68,12.77c-2.6-2.91-5.41-5.1-8.42-6.56-3-1.44-6.36-2.17-10.04-2.17-3.27,0-6.23,.51-8.91,1.57-2.69,1.04-4.97,2.55-6.85,4.53-1.88,1.98-3.35,4.33-4.4,7.06-1.04,2.73-1.57,5.8-1.57,9.23s.53,6.32,1.57,9.08c1.05,2.75,2.52,5.13,4.4,7.11,1.89,1.97,4.16,3.51,6.8,4.59,2.63,1.08,5.55,1.62,8.74,1.62s6.29-.54,9.34-1.62c.76-.27,1.52-.59,2.28-.96v-21.5Z"/>
    <polygon class="cls-3" points="431.48 198.27 431.48 276.65 413.76 276.65 380.2 234.89 380.2 276.65 359.12 276.65 359.12 198.27 376.84 198.27 410.4 240.03 410.4 198.27 431.48 198.27"/>
    <polygon class="cls-8" points="501.32 259.52 501.32 276.65 440.28 276.65 440.28 198.27 499.91 198.27 499.91 215.4 461.57 215.4 461.57 228.61 495.35 228.61 495.35 245.18 461.57 245.18 461.57 259.52 501.32 259.52"/>
    <path class="cls-7" d="M580.18,276.63h-23.01l-13.79-20.82h-11.78v20.82h-21.51v-78.35h34.8c6.92,0,12.95,1.12,17.97,3.47,5.03,2.28,8.93,5.64,11.67,9.99,2.74,4.41,4.13,9.55,4.13,15.53s-1.39,11-4.13,15.3c-2.56,4.02-6.19,7.15-10.78,9.38l16.42,24.68Z"/>
  </g>
  <rect class="cls-9" x="26.24" y="180.35" width="254.79" height="3.57" rx=".23" ry=".23"/>
  <g>
    <g>
      <path class="cls-15" d="M329.8,157.27s0-.05,0-.08c.06-.04,.06-.1,.06-.16,.02-.01,.04-.03,.06-.04,.05-.01,.11-.02,.16-.03,1.73-.57,3.45-1.13,5.18-1.7,1.17-.38,2.34-.77,3.52-1.15,.15-.06,.11-.19,.11-.31,0-3.43,0-6.85,0-10.28,0-.1,0-.2-.04-.3-.03-.09-.06-.12-.15-.06-.33,.25-.78,.13-1.14,.36-.22,.14-.62-.05-.82,.29,0,.01-.04,.01-.05,0-.34-.07-.66-.05-.92,.22,0,0-.04,0-.05,0-.3,.13-.62,.13-.92,.19-.17,.03-.23-.02-.3-.14,.21-.68,.49-1.34,.75-2,.65-1.73,1.31-3.45,1.97-5.18,.52-1.36,1.03-2.72,1.55-4.07,.03-.08,.07-.15,.11-.22,.11,.02,.11,.12,.14,.19,.36,.92,.71,1.84,1.06,2.76,.56,1.47,1.13,2.94,1.69,4.41,.09,.24,.14,.49,.24,.72,.59,1.37,1.11,2.78,1.64,4.17,.03,.08,.04,.16,.06,.24,.01,.02,.03,.05,.04,.07,.02,.05,.04,.11,.06,.16-.01,.06,0,.1,.06,.13,0,.04,.02,.07,.03,.11-.08,.24,.12,.42,.16,.63,.05,.22,.2,.45,.05,.67-.17,.26-.37,.51-.55,.77-.45,.62-.91,1.25-1.36,1.87-.45,.62-.92,1.22-1.34,1.85-.34,.51-.72,1-1.05,1.52-.23,.36-.55,.66-.69,1.07-.06,.03-.12,.06-.13,.14-.02,.02-.03,.04-.05,.06-.05,0-.08,.03-.11,.07-.73,1.02-1.44,2.05-2.19,3.07-.53,.72-1.05,1.45-1.57,2.17-.49,.67-.94,1.36-1.46,2-.02-.16,.01-.4-.24-.36-.17,.03-.22-.03-.25-.16-.02-.09-.08-.15-.14-.2-.42-.3-.77-.69-1.11-1.07-.52-.6-1.16-1.1-1.64-1.73-.16-.21-.6-.28-.42-.7Z"/>
      <path class="cls-20" d="M338.93,154.17s.03-.04,.05-.06c.21,.06,.42,.12,.62,.19,1.46,.47,2.92,.95,4.38,1.42,.82,.27,1.64,.55,2.46,.81,.52,.17,1.03,.38,1.57,.49,.16,.65,.31,1.31,.48,1.96,.22,.85,.45,1.7,.68,2.56,.43,1.63,.86,3.26,1.28,4.89,.32,1.23,.61,2.46,.93,3.68,.17,.67,.36,1.33,.53,2,.03,.11,.11,.22,.03,.34-.96-1.33-1.94-2.65-2.88-4-.75-1.09-1.55-2.14-2.3-3.22-.89-1.26-1.78-2.52-2.67-3.78-.6-.85-1.21-1.7-1.81-2.55-.63-.88-1.25-1.76-1.88-2.64-.48-.68-.97-1.35-1.46-2.03,0-.02,0-.03,0-.05Z"/>
      <path class="cls-20" d="M317.53,147.18c-.06-.04-.12-.08-.2-.13,.12-.06,.25-.05,.37-.04,1.06,.03,2.13-.04,3.19-.07,.63-.02,1.26-.02,1.89-.04,1.56-.06,3.11-.09,4.67-.13,1.3-.03,2.6-.08,3.9-.1,.73,0,1.46-.07,2.19-.11,.03,.06,.05,.12,.09,.17,.48,.67,.97,1.35,1.45,2.02,.7,.99,1.41,1.98,2.11,2.97,.53,.76,1.1,1.5,1.59,2.29-.08-.02-.16-.04-.24-.06-1.69-.55-3.38-1.1-5.07-1.65-1.07-.35-2.14-.69-3.21-1.03-.07-.03-.13-.06-.2-.08-1.86-.61-3.73-1.21-5.59-1.82-1.88-.61-3.76-1.24-5.64-1.84-.42-.14-.83-.34-1.29-.35Z"/>
      <path class="cls-20" d="M339.1,153.97c.14-.41,.46-.72,.69-1.07,.33-.52,.71-1.01,1.05-1.52,.42-.63,.89-1.24,1.34-1.85,.45-.62,.91-1.25,1.36-1.87,.19-.26,.38-.51,.55-.77,.15-.23,0-.45-.05-.67-.05-.21-.25-.38-.16-.63,.17,.21,.21,.48,.32,.72,.09,.2,.2,.28,.42,.28,1.59,.02,3.18,.09,4.77,.12,1.33,.03,2.67,.06,4,.11,1.36,.05,2.72,.06,4.09,.11,.9,.04,1.81,0,2.71,.12-.26,.09-.52,.17-.78,.26-1.75,.58-3.51,1.16-5.26,1.74-1.4,.46-2.8,.93-4.2,1.39-.57,.19-1.14,.38-1.72,.57-1.99,.65-3.98,1.3-5.97,1.95-1.05,.34-2.1,.69-3.16,1.03Z"/>
      <path class="cls-12" d="M338.93,154.22c.49,.68,.98,1.35,1.46,2.03,.63,.88,1.25,1.76,1.88,2.64,.6,.85,1.21,1.7,1.81,2.55,.89,1.26,1.78,2.52,2.67,3.78-.04,.11-.23,.17-.15,.3,.1,.15,.08,.3,.08,.46,0,.73,0,1.46,0,2.19,0,.12,0,.29-.08,.36-.15,.14-.1,.3-.13,.45-.61-.39-1.23-.78-1.84-1.18-1.7-1.09-3.39-2.19-5.08-3.28-.22-.14-.44-.29-.66-.44,0-3.22,0-6.43,0-9.65,0-.07-.02-.15,.05-.21Z"/>
      <path class="cls-16" d="M338.93,154.22c-.06,.06-.05,.14-.05,.21,0,3.22,0,6.43,0,9.65-1.77,1.15-3.54,2.29-5.3,3.44-.06,.04-.12,.09-.2,.08-.03-.32,.05-.64,.05-.96,0-1.18,.03-2.36-.01-3.54-.01-.31,.12-.7-.21-.96l.32-.5s.01-.03,.01-.05h0s.05-.07,.06-.11h0c.52-.64,.98-1.33,1.46-2,.52-.72,1.04-1.45,1.57-2.17,.74-1.01,1.46-2.04,2.19-3.07,.03-.04,.05-.07,.11-.07,0,.02,0,.03,0,.05Z"/>
      <path class="cls-16" d="M339.1,153.97c1.05-.34,2.1-.68,3.16-1.03,1.99-.65,3.98-1.3,5.97-1.95,.57-.19,1.15-.38,1.72-.57,.02,.04,.06,.09,.05,.13-.17,.46,.4,.78,.24,1.24,0,.02,.02,.05,.04,.07,.21,.32,.36,.67,.46,1.04,.05,.19,.13,.41,.27,.54,.17,.16,.2,.27,.08,.46-.03,.05-.11,.18-.02,.23,.07,.04,.18,.09,.28,.04,.08-.04,.16-.09,.26-.06-.72,.64-1.5,1.2-2.25,1.82-.44,.37-.9,.72-1.34,1.08-.54-.11-1.05-.32-1.57-.49-.82-.26-1.64-.54-2.46-.81-1.46-.48-2.92-.95-4.38-1.42-.21-.07-.41-.13-.62-.19,0-.08,.07-.1,.13-.14Z"/>
      <path class="cls-16" d="M317.53,147.18c.46,.01,.87,.22,1.29,.35,1.88,.6,3.76,1.23,5.64,1.84,1.86,.61,3.73,1.21,5.59,1.82,.07,.02,.13,.06,.2,.08-.01,.09,0,.17,.05,.25,0,0,0,.02-.01,.02,0,0,0-.02,.01-.02,.2,0,.3,.06,.16,.25-.09,.13-.1,.27-.1,.42,0,.86,.02,1.72,0,2.58-.01,.52,.1,1.06-.08,1.58-.01,.03,.02,.09,.05,.12,.16,.16,.06,.23-.09,.33-.1,.07-.3,0-.31,.2-.02,.01-.04,.03-.06,.04-.02,0-.04,0-.06,0-1.6-1.27-3.19-2.55-4.79-3.82-2.11-1.69-4.22-3.37-6.33-5.06-.39-.31-.82-.58-1.15-.96Z"/>
      <path class="cls-14" d="M333.54,161.64c-.11,.17-.22,.33-.32,.5-.61,.79-1.15,1.62-1.76,2.41-.52,.69-.99,1.42-1.49,2.12-1.18,1.65-2.35,3.3-3.54,4.94-.18,.24-.31,.54-.58,.7,.07-.52,.24-1.01,.37-1.51,.45-1.76,.91-3.53,1.37-5.29,.21-.8,.43-1.59,.64-2.38,.31-1.18,.61-2.36,.92-3.54,.15-.57,.31-1.13,.46-1.69,.06-.21,.02-.46,.19-.64-.17,.42,.26,.48,.42,.7,.48,.63,1.11,1.13,1.64,1.73,.33,.39,.68,.77,1.11,1.07,.07,.05,.12,.11,.14,.2,.03,.13,.08,.18,.25,.16,.26-.04,.22,.2,.24,.36,0,0,0,0,0,0-.05,.02-.06,.06-.06,.11,0,0,0,0,0,0,0,0-.02,0-.02,.01,0,.01,0,.03,.01,.04Z"/>
      <path class="cls-14" d="M338.77,154.02c-.49-.79-1.06-1.53-1.59-2.29-.69-1-1.4-1.98-2.11-2.97-.48-.68-.97-1.35-1.45-2.02-.04-.05-.06-.11-.09-.17,0,0,0,0,0,0,.06-.02,.07-.06,.05-.11,0-.02,0-.04,.01-.05,0,0,.01,0,.02-.01,0-.01-.01-.02-.02-.04,.29-.75,.59-1.5,.88-2.26,.07,.12,.13,.17,.3,.14,.31-.06,.63-.06,.92-.19,.02,0,.04,0,.05,0,.26-.27,.58-.29,.92-.22,.02,0,.05,0,.05,0,.2-.34,.59-.15,.82-.29,.37-.23,.81-.11,1.14-.36,.09-.07,.12-.03,.15,.06,.04,.1,.04,.19,.04,.3,0,3.43,0,6.85,0,10.28,0,.11,.04,.25-.11,.31,0-.03,0-.06,0-.09Z"/>
      <path class="cls-12" d="M351.6,154.11c-.1-.02-.18,.02-.26,.06-.1,.05-.21,0-.28-.04-.09-.05,0-.18,.02-.23,.12-.19,.09-.3-.08-.46-.14-.13-.22-.35-.27-.54-.1-.37-.25-.72-.46-1.04-.01-.02-.04-.05-.04-.07,.16-.46-.41-.77-.24-1.24,.01-.03-.03-.08-.05-.13,1.4-.46,2.8-.93,4.2-1.39,1.75-.58,3.51-1.16,5.26-1.74,.26-.09,.52-.17,.78-.26,.07,0,.15-.01,.24,.05-.22,.18-.43,.35-.64,.52-1.41,1.12-2.82,2.25-4.23,3.37-1.19,.95-2.37,1.89-3.56,2.84-.04,.03-.08,.05-.12,.07-.02,.02-.04,.03-.06,.05,0,0,0,0,0,0-.02,.02-.04,.03-.05,.05,0,0,0,0,0,0-.05,0-.08,.01-.09,.07,0,0,0,0,0,0-.02,.02-.04,.03-.06,.05h0Z"/>
      <path class="cls-12" d="M325.85,172.31c.27-.17,.4-.46,.58-.7,1.19-1.64,2.37-3.29,3.54-4.94,.5-.7,.96-1.44,1.49-2.12,.6-.79,1.15-1.62,1.76-2.41,.32,.26,.19,.65,.21,.96,.04,1.18,.02,2.36,.01,3.54,0,.32-.08,.64-.05,.96-.18,.22-.45,.33-.69,.49-.6,.4-1.21,.79-1.82,1.18-1.62,1.05-3.23,2.1-4.85,3.15-.06,.04-.13,.07-.19,.11-.08-.08-.02-.15,.01-.22Zm7.29-9.69s-.03-.02-.05-.02c-.01,0-.01,.03-.02,.04,.02,0,.03,.02,.05,.02,.01,0,.01-.03,.02-.04Z"/>
      <path class="cls-16" d="M346.48,168.97c.03-.15-.02-.31,.13-.45,.08-.07,.08-.24,.08-.36,0-.73,0-1.46,0-2.19,0-.16,.02-.31-.08-.46-.08-.12,.11-.19,.15-.3,.76,1.08,1.55,2.14,2.3,3.22,.94,1.35,1.92,2.67,2.88,4,.07,.16-.02,.08-.07,.05-.46-.3-.92-.59-1.38-.89-1.3-.84-2.6-1.69-3.9-2.53-.04-.02-.07-.06-.1-.09Z"/>
      <path class="cls-20" d="M343.85,145.48c-.06-.02-.07-.07-.06-.13,.06,.02,.11,.05,.06,.13Z"/>
      <path class="cls-14" d="M329.81,157.03s.04,0,.06,0c0,.06,0,.12-.06,.16,0-.05,0-.11,0-.16Z"/>
      <path class="cls-20" d="M333.59,146.45c.01,.05,0,.09-.05,.11,0-.04,.01-.08,.05-.11Z"/>
      <path class="cls-16" d="M351.66,154.06c0-.05,.05-.06,.09-.07-.01,.05-.05,.06-.09,.07Z"/>
      <path class="cls-20" d="M343.73,145.19s-.03-.05-.04-.07c.01,.02,.03,.05,.04,.07Z"/>
      <path class="cls-20" d="M333.6,146.35s.01,.02,.02,.04c0,0-.01,0-.02,.01,0-.02,0-.03,0-.05Z"/>
      <path class="cls-16" d="M351.82,153.94s.04-.03,.06-.05c-.02,.02-.04,.03-.06,.05Z"/>
      <path class="cls-16" d="M351.76,153.99s.04-.03,.05-.05c0,.03-.02,.05-.05,.05Z"/>
      <path class="cls-16" d="M351.6,154.11s.04-.03,.06-.05c-.02,.02-.04,.03-.06,.05Z"/>
      <path class="cls-12" d="M338.77,154.02s0,.06,0,.09c-1.17,.38-2.34,.77-3.52,1.15-1.73,.57-3.45,1.13-5.18,1.7-.05,.02-.11,.02-.16,.03,.01-.2,.21-.13,.31-.2,.14-.1,.25-.17,.09-.33-.03-.03-.06-.09-.05-.12,.19-.52,.07-1.05,.08-1.58,.02-.86,0-1.72,0-2.58,0-.15,.01-.29,.1-.42,.14-.19,.04-.26-.16-.25h0c-.04-.08-.06-.16-.05-.25,1.07,.34,2.14,.68,3.21,1.03,1.69,.55,3.38,1.1,5.07,1.65,.08,.03,.16,.04,.24,.06Z"/>
      <path class="cls-15" d="M333.55,161.59s0-.09,.06-.11c0,.04,0,.09-.06,.11Z"/>
      <path class="cls-15" d="M333.54,161.64s-.01-.03-.01-.04c0,0,.01,0,.02-.01,0,.02,0,.03-.01,.05Z"/>
      <path class="cls-12" d="M330.3,151.52s0,.02-.01,.02c0,0,0-.02,.01-.02h0Z"/>
      <path class="cls-16" d="M333.14,162.62s0,.04-.02,.04c-.01,0-.03-.01-.05-.02,0-.02,0-.04,.02-.04,.01,0,.03,.01,.05,.02Z"/>
    </g>
    <g>
      <path class="cls-15" d="M376.42,157.27s0-.05,0-.08c.06-.04,.06-.1,.06-.16,.02-.01,.04-.03,.06-.04,.05-.01,.11-.02,.16-.03,1.73-.57,3.45-1.13,5.18-1.7,1.17-.38,2.34-.77,3.52-1.15,.15-.06,.11-.19,.11-.31,0-3.43,0-6.85,0-10.28,0-.1,0-.2-.04-.3-.03-.09-.06-.12-.15-.06-.33,.25-.78,.13-1.14,.36-.22,.14-.62-.05-.82,.29,0,.01-.04,.01-.05,0-.34-.07-.66-.05-.92,.22,0,0-.04,0-.05,0-.3,.13-.62,.13-.92,.19-.17,.03-.23-.02-.3-.14,.21-.68,.49-1.34,.75-2,.65-1.73,1.31-3.45,1.97-5.18,.52-1.36,1.03-2.72,1.55-4.07,.03-.08,.07-.15,.11-.22,.11,.02,.11,.12,.14,.19,.36,.92,.71,1.84,1.06,2.76,.56,1.47,1.13,2.94,1.69,4.41,.09,.24,.14,.49,.24,.72,.59,1.37,1.11,2.78,1.64,4.17,.03,.08,.04,.16,.06,.24,.01,.02,.03,.05,.04,.07,.02,.05,.04,.11,.06,.16-.01,.06,0,.1,.06,.13,0,.04,.02,.07,.03,.11-.08,.24,.12,.42,.16,.63,.05,.22,.2,.45,.05,.67-.17,.26-.37,.51-.55,.77-.45,.62-.91,1.25-1.36,1.87-.45,.62-.92,1.22-1.34,1.85-.34,.51-.72,1-1.05,1.52-.23,.36-.55,.66-.69,1.07-.06,.03-.12,.06-.13,.14-.02,.02-.03,.04-.05,.06-.05,0-.08,.03-.11,.07-.73,1.02-1.44,2.05-2.19,3.07-.53,.72-1.05,1.45-1.57,2.17-.49,.67-.94,1.36-1.46,2-.02-.16,.01-.4-.24-.36-.17,.03-.22-.03-.25-.16-.02-.09-.08-.15-.14-.2-.42-.3-.77-.69-1.11-1.07-.52-.6-1.16-1.1-1.64-1.73-.16-.21-.6-.28-.42-.7Z"/>
      <path class="cls-20" d="M385.55,154.17s.03-.04,.05-.06c.21,.06,.42,.12,.62,.19,1.46,.47,2.92,.95,4.38,1.42,.82,.27,1.64,.55,2.46,.81,.52,.17,1.03,.38,1.57,.49,.16,.65,.31,1.31,.48,1.96,.22,.85,.45,1.7,.68,2.56,.43,1.63,.86,3.26,1.28,4.89,.32,1.23,.61,2.46,.93,3.68,.17,.67,.36,1.33,.53,2,.03,.11,.11,.22,.03,.34-.96-1.33-1.94-2.65-2.88-4-.75-1.09-1.55-2.14-2.3-3.22-.89-1.26-1.78-2.52-2.67-3.78-.6-.85-1.21-1.7-1.81-2.55-.63-.88-1.25-1.76-1.88-2.64-.48-.68-.97-1.35-1.46-2.03,0-.02,0-.03,0-.05Z"/>
      <path class="cls-20" d="M364.15,147.18c-.06-.04-.12-.08-.2-.13,.12-.06,.25-.05,.37-.04,1.06,.03,2.13-.04,3.19-.07,.63-.02,1.26-.02,1.89-.04,1.56-.06,3.11-.09,4.67-.13,1.3-.03,2.6-.08,3.9-.1,.73,0,1.46-.07,2.19-.11,.03,.06,.05,.12,.09,.17,.48,.67,.97,1.35,1.45,2.02,.7,.99,1.41,1.98,2.11,2.97,.53,.76,1.1,1.5,1.59,2.29-.08-.02-.16-.04-.24-.06-1.69-.55-3.38-1.1-5.07-1.65-1.07-.35-2.14-.69-3.21-1.03-.07-.03-.13-.06-.2-.08-1.86-.61-3.73-1.21-5.59-1.82-1.88-.61-3.76-1.24-5.64-1.84-.42-.14-.83-.34-1.29-.35Z"/>
      <path class="cls-20" d="M385.73,153.97c.14-.41,.46-.72,.69-1.07,.33-.52,.71-1.01,1.05-1.52,.42-.63,.89-1.24,1.34-1.85,.45-.62,.91-1.25,1.36-1.87,.19-.26,.38-.51,.55-.77,.15-.23,0-.45-.05-.67-.05-.21-.25-.38-.16-.63,.17,.21,.21,.48,.32,.72,.09,.2,.2,.28,.42,.28,1.59,.02,3.18,.09,4.77,.12,1.33,.03,2.67,.06,4,.11,1.36,.05,2.72,.06,4.09,.11,.9,.04,1.81,0,2.71,.12-.26,.09-.52,.17-.78,.26-1.75,.58-3.51,1.16-5.26,1.74-1.4,.46-2.8,.93-4.2,1.39-.57,.19-1.14,.38-1.72,.57-1.99,.65-3.98,1.3-5.97,1.95-1.05,.34-2.1,.69-3.16,1.03Z"/>
      <path class="cls-12" d="M385.55,154.22c.49,.68,.98,1.35,1.46,2.03,.63,.88,1.25,1.76,1.88,2.64,.6,.85,1.21,1.7,1.81,2.55,.89,1.26,1.78,2.52,2.67,3.78-.04,.11-.23,.17-.15,.3,.1,.15,.08,.3,.08,.46,0,.73,0,1.46,0,2.19,0,.12,0,.29-.08,.36-.15,.14-.1,.3-.13,.45-.61-.39-1.23-.78-1.84-1.18-1.7-1.09-3.39-2.19-5.08-3.28-.22-.14-.44-.29-.66-.44,0-3.22,0-6.43,0-9.65,0-.07-.02-.15,.05-.21Z"/>
      <path class="cls-16" d="M385.55,154.22c-.06,.06-.05,.14-.05,.21,0,3.22,0,6.43,0,9.65-1.77,1.15-3.54,2.29-5.3,3.44-.06,.04-.12,.09-.2,.08-.03-.32,.05-.64,.05-.96,0-1.18,.03-2.36-.01-3.54-.01-.31,.12-.7-.21-.96l.32-.5s.01-.03,.01-.05h0s.05-.07,.06-.11h0c.52-.64,.98-1.33,1.46-2,.52-.72,1.04-1.45,1.57-2.17,.74-1.01,1.46-2.04,2.19-3.07,.03-.04,.05-.07,.11-.07,0,.02,0,.03,0,.05Z"/>
      <path class="cls-16" d="M385.73,153.97c1.05-.34,2.1-.68,3.16-1.03,1.99-.65,3.98-1.3,5.97-1.95,.57-.19,1.15-.38,1.72-.57,.02,.04,.06,.09,.05,.13-.17,.46,.4,.78,.24,1.24,0,.02,.02,.05,.04,.07,.21,.32,.36,.67,.46,1.04,.05,.19,.13,.41,.27,.54,.17,.16,.2,.27,.08,.46-.03,.05-.11,.18-.02,.23,.07,.04,.18,.09,.28,.04,.08-.04,.16-.09,.26-.06-.72,.64-1.5,1.2-2.25,1.82-.44,.37-.9,.72-1.34,1.08-.54-.11-1.05-.32-1.57-.49-.82-.26-1.64-.54-2.46-.81-1.46-.48-2.92-.95-4.38-1.42-.21-.07-.41-.13-.62-.19,0-.08,.07-.1,.13-.14Z"/>
      <path class="cls-16" d="M364.15,147.18c.46,.01,.87,.22,1.29,.35,1.88,.6,3.76,1.23,5.64,1.84,1.86,.61,3.73,1.21,5.59,1.82,.07,.02,.13,.06,.2,.08-.01,.09,0,.17,.05,.25,0,0,0,.02-.01,.02,0,0,0-.02,.01-.02,.2,0,.3,.06,.16,.25-.09,.13-.1,.27-.1,.42,0,.86,.02,1.72,0,2.58-.01,.52,.1,1.06-.08,1.58-.01,.03,.02,.09,.05,.12,.16,.16,.06,.23-.09,.33-.1,.07-.3,0-.31,.2-.02,.01-.04,.03-.06,.04-.02,0-.04,0-.06,0-1.6-1.27-3.19-2.55-4.79-3.82-2.11-1.69-4.22-3.37-6.33-5.06-.39-.31-.82-.58-1.15-.96Z"/>
      <path class="cls-14" d="M380.16,161.64c-.11,.17-.22,.33-.32,.5-.61,.79-1.15,1.62-1.76,2.41-.52,.69-.99,1.42-1.49,2.12-1.18,1.65-2.35,3.3-3.54,4.94-.18,.24-.31,.54-.58,.7,.07-.52,.24-1.01,.37-1.51,.45-1.76,.91-3.53,1.37-5.29,.21-.8,.43-1.59,.64-2.38,.31-1.18,.61-2.36,.92-3.54,.15-.57,.31-1.13,.46-1.69,.06-.21,.02-.46,.19-.64-.17,.42,.26,.48,.42,.7,.48,.63,1.11,1.13,1.64,1.73,.33,.39,.68,.77,1.11,1.07,.07,.05,.12,.11,.14,.2,.03,.13,.08,.18,.25,.16,.26-.04,.22,.2,.24,.36,0,0,0,0,0,0-.05,.02-.06,.06-.06,.11,0,0,0,0,0,0,0,0-.02,0-.02,.01,0,.01,0,.03,.01,.04Z"/>
      <path class="cls-14" d="M385.39,154.02c-.49-.79-1.06-1.53-1.59-2.29-.69-1-1.4-1.98-2.11-2.97-.48-.68-.97-1.35-1.45-2.02-.04-.05-.06-.11-.09-.17,0,0,0,0,0,0,.06-.02,.07-.06,.05-.11,0-.02,0-.04,.01-.05,0,0,.01,0,.02-.01,0-.01-.01-.02-.02-.04,.29-.75,.59-1.5,.88-2.26,.07,.12,.13,.17,.3,.14,.31-.06,.63-.06,.92-.19,.02,0,.04,0,.05,0,.26-.27,.58-.29,.92-.22,.02,0,.05,0,.05,0,.2-.34,.59-.15,.82-.29,.37-.23,.81-.11,1.14-.36,.09-.07,.12-.03,.15,.06,.04,.1,.04,.19,.04,.3,0,3.43,0,6.85,0,10.28,0,.11,.04,.25-.11,.31,0-.03,0-.06,0-.09Z"/>
      <path class="cls-12" d="M398.22,154.11c-.1-.02-.18,.02-.26,.06-.1,.05-.21,0-.28-.04-.09-.05,0-.18,.02-.23,.12-.19,.09-.3-.08-.46-.14-.13-.22-.35-.27-.54-.1-.37-.25-.72-.46-1.04-.01-.02-.04-.05-.04-.07,.16-.46-.41-.77-.24-1.24,.01-.03-.03-.08-.05-.13,1.4-.46,2.8-.93,4.2-1.39,1.75-.58,3.51-1.16,5.26-1.74,.26-.09,.52-.17,.78-.26,.07,0,.15-.01,.24,.05-.22,.18-.43,.35-.64,.52-1.41,1.12-2.82,2.25-4.23,3.37-1.19,.95-2.37,1.89-3.56,2.84-.04,.03-.08,.05-.12,.07-.02,.02-.04,.03-.06,.05,0,0,0,0,0,0-.02,.02-.04,.03-.05,.05,0,0,0,0,0,0-.05,0-.08,.01-.09,.07,0,0,0,0,0,0-.02,.02-.04,.03-.06,.05h0Z"/>
      <path class="cls-12" d="M372.47,172.31c.27-.17,.4-.46,.58-.7,1.19-1.64,2.37-3.29,3.54-4.94,.5-.7,.96-1.44,1.49-2.12,.6-.79,1.15-1.62,1.76-2.41,.32,.26,.19,.65,.21,.96,.04,1.18,.02,2.36,.01,3.54,0,.32-.08,.64-.05,.96-.18,.22-.45,.33-.69,.49-.6,.4-1.21,.79-1.82,1.18-1.62,1.05-3.23,2.1-4.85,3.15-.06,.04-.13,.07-.19,.11-.08-.08-.02-.15,.01-.22Zm7.29-9.69s-.03-.02-.05-.02c-.01,0-.01,.03-.02,.04,.02,0,.03,.02,.05,.02,.01,0,.01-.03,.02-.04Z"/>
      <path class="cls-16" d="M393.1,168.97c.03-.15-.02-.31,.13-.45,.08-.07,.08-.24,.08-.36,0-.73,0-1.46,0-2.19,0-.16,.02-.31-.08-.46-.08-.12,.11-.19,.15-.3,.76,1.08,1.55,2.14,2.3,3.22,.94,1.35,1.92,2.67,2.88,4,.07,.16-.02,.08-.07,.05-.46-.3-.92-.59-1.38-.89-1.3-.84-2.6-1.69-3.9-2.53-.04-.02-.07-.06-.1-.09Z"/>
      <path class="cls-20" d="M390.47,145.48c-.06-.02-.07-.07-.06-.13,.06,.02,.11,.05,.06,.13Z"/>
      <path class="cls-14" d="M376.43,157.03s.04,0,.06,0c0,.06,0,.12-.06,.16,0-.05,0-.11,0-.16Z"/>
      <path class="cls-20" d="M380.21,146.45c.01,.05,0,.09-.05,.11,0-.04,.01-.08,.05-.11Z"/>
      <path class="cls-16" d="M398.28,154.06c0-.05,.05-.06,.09-.07-.01,.05-.05,.06-.09,.07Z"/>
      <path class="cls-20" d="M390.35,145.19s-.03-.05-.04-.07c.01,.02,.03,.05,.04,.07Z"/>
      <path class="cls-20" d="M380.22,146.35s.01,.02,.02,.04c0,0-.01,0-.02,.01,0-.02,0-.03,0-.05Z"/>
      <path class="cls-16" d="M398.44,153.94s.04-.03,.06-.05c-.02,.02-.04,.03-.06,.05Z"/>
      <path class="cls-16" d="M398.38,153.99s.04-.03,.05-.05c0,.03-.02,.05-.05,.05Z"/>
      <path class="cls-16" d="M398.22,154.11s.04-.03,.06-.05c-.02,.02-.04,.03-.06,.05Z"/>
      <path class="cls-12" d="M385.39,154.02s0,.06,0,.09c-1.17,.38-2.34,.77-3.52,1.15-1.73,.57-3.45,1.13-5.18,1.7-.05,.02-.11,.02-.16,.03,.01-.2,.21-.13,.31-.2,.14-.1,.25-.17,.09-.33-.03-.03-.06-.09-.05-.12,.19-.52,.07-1.05,.08-1.58,.02-.86,0-1.72,0-2.58,0-.15,.01-.29,.1-.42,.14-.19,.04-.26-.16-.25h0c-.04-.08-.06-.16-.05-.25,1.07,.34,2.14,.68,3.21,1.03,1.69,.55,3.38,1.1,5.07,1.65,.08,.03,.16,.04,.24,.06Z"/>
      <path class="cls-15" d="M380.17,161.59s0-.09,.06-.11c0,.04,0,.09-.06,.11Z"/>
      <path class="cls-15" d="M380.16,161.64s-.01-.03-.01-.04c0,0,.01,0,.02-.01,0,.02,0,.03-.01,.05Z"/>
      <path class="cls-12" d="M376.92,151.52s0,.02-.01,.02c0,0,0-.02,.01-.02h0Z"/>
      <path class="cls-16" d="M379.76,162.62s0,.04-.02,.04c-.01,0-.03-.01-.05-.02,0-.02,0-.04,.02-.04,.01,0,.03,.01,.05,.02Z"/>
    </g>
    <g>
      <path class="cls-15" d="M423.05,157.27s0-.05,0-.08c.06-.04,.06-.1,.06-.16,.02-.01,.04-.03,.06-.04,.05-.01,.11-.02,.16-.03,1.73-.57,3.45-1.13,5.18-1.7,1.17-.38,2.34-.77,3.52-1.15,.15-.06,.11-.19,.11-.31,0-3.43,0-6.85,0-10.28,0-.1,0-.2-.04-.3-.03-.09-.06-.12-.15-.06-.33,.25-.78,.13-1.14,.36-.22,.14-.62-.05-.82,.29,0,.01-.04,.01-.05,0-.34-.07-.66-.05-.92,.22,0,0-.04,0-.05,0-.3,.13-.62,.13-.92,.19-.17,.03-.23-.02-.3-.14,.21-.68,.49-1.34,.75-2,.65-1.73,1.31-3.45,1.97-5.18,.52-1.36,1.03-2.72,1.55-4.07,.03-.08,.07-.15,.11-.22,.11,.02,.11,.12,.14,.19,.36,.92,.71,1.84,1.06,2.76,.56,1.47,1.13,2.94,1.69,4.41,.09,.24,.14,.49,.24,.72,.59,1.37,1.11,2.78,1.64,4.17,.03,.08,.04,.16,.06,.24,.01,.02,.03,.05,.04,.07,.02,.05,.04,.11,.06,.16-.01,.06,0,.1,.06,.13,0,.04,.02,.07,.03,.11-.08,.24,.12,.42,.16,.63,.05,.22,.2,.45,.05,.67-.17,.26-.37,.51-.55,.77-.45,.62-.91,1.25-1.36,1.87-.45,.62-.92,1.22-1.34,1.85-.34,.51-.72,1-1.05,1.52-.23,.36-.55,.66-.69,1.07-.06,.03-.12,.06-.13,.14-.02,.02-.03,.04-.05,.06-.05,0-.08,.03-.11,.07-.73,1.02-1.44,2.05-2.19,3.07-.53,.72-1.05,1.45-1.57,2.17-.49,.67-.94,1.36-1.46,2-.02-.16,.01-.4-.24-.36-.17,.03-.22-.03-.25-.16-.02-.09-.08-.15-.14-.2-.42-.3-.77-.69-1.11-1.07-.52-.6-1.16-1.1-1.64-1.73-.16-.21-.6-.28-.42-.7Z"/>
      <path class="cls-20" d="M432.17,154.17s.03-.04,.05-.06c.21,.06,.42,.12,.62,.19,1.46,.47,2.92,.95,4.38,1.42,.82,.27,1.64,.55,2.46,.81,.52,.17,1.03,.38,1.57,.49,.16,.65,.31,1.31,.48,1.96,.22,.85,.45,1.7,.68,2.56,.43,1.63,.86,3.26,1.28,4.89,.32,1.23,.61,2.46,.93,3.68,.17,.67,.36,1.33,.53,2,.03,.11,.11,.22,.03,.34-.96-1.33-1.94-2.65-2.88-4-.75-1.09-1.55-2.14-2.3-3.22-.89-1.26-1.78-2.52-2.67-3.78-.6-.85-1.21-1.7-1.81-2.55-.63-.88-1.25-1.76-1.88-2.64-.48-.68-.97-1.35-1.46-2.03,0-.02,0-.03,0-.05Z"/>
      <path class="cls-20" d="M410.77,147.18c-.06-.04-.12-.08-.2-.13,.12-.06,.25-.05,.37-.04,1.06,.03,2.13-.04,3.19-.07,.63-.02,1.26-.02,1.89-.04,1.56-.06,3.11-.09,4.67-.13,1.3-.03,2.6-.08,3.9-.1,.73,0,1.46-.07,2.19-.11,.03,.06,.05,.12,.09,.17,.48,.67,.97,1.35,1.45,2.02,.7,.99,1.41,1.98,2.11,2.97,.53,.76,1.1,1.5,1.59,2.29-.08-.02-.16-.04-.24-.06-1.69-.55-3.38-1.1-5.07-1.65-1.07-.35-2.14-.69-3.21-1.03-.07-.03-.13-.06-.2-.08-1.86-.61-3.73-1.21-5.59-1.82-1.88-.61-3.76-1.24-5.64-1.84-.42-.14-.83-.34-1.29-.35Z"/>
      <path class="cls-20" d="M432.35,153.97c.14-.41,.46-.72,.69-1.07,.33-.52,.71-1.01,1.05-1.52,.42-.63,.89-1.24,1.34-1.85,.45-.62,.91-1.25,1.36-1.87,.19-.26,.38-.51,.55-.77,.15-.23,0-.45-.05-.67-.05-.21-.25-.38-.16-.63,.17,.21,.21,.48,.32,.72,.09,.2,.2,.28,.42,.28,1.59,.02,3.18,.09,4.77,.12,1.33,.03,2.67,.06,4,.11,1.36,.05,2.72,.06,4.09,.11,.9,.04,1.81,0,2.71,.12-.26,.09-.52,.17-.78,.26-1.75,.58-3.51,1.16-5.26,1.74-1.4,.46-2.8,.93-4.2,1.39-.57,.19-1.14,.38-1.72,.57-1.99,.65-3.98,1.3-5.97,1.95-1.05,.34-2.1,.69-3.16,1.03Z"/>
      <path class="cls-12" d="M432.17,154.22c.49,.68,.98,1.35,1.46,2.03,.63,.88,1.25,1.76,1.88,2.64,.6,.85,1.21,1.7,1.81,2.55,.89,1.26,1.78,2.52,2.67,3.78-.04,.11-.23,.17-.15,.3,.1,.15,.08,.3,.08,.46,0,.73,0,1.46,0,2.19,0,.12,0,.29-.08,.36-.15,.14-.1,.3-.13,.45-.61-.39-1.23-.78-1.84-1.18-1.7-1.09-3.39-2.19-5.08-3.28-.22-.14-.44-.29-.66-.44,0-3.22,0-6.43,0-9.65,0-.07-.02-.15,.05-.21Z"/>
      <path class="cls-16" d="M432.17,154.22c-.06,.06-.05,.14-.05,.21,0,3.22,0,6.43,0,9.65-1.77,1.15-3.54,2.29-5.3,3.44-.06,.04-.12,.09-.2,.08-.03-.32,.05-.64,.05-.96,0-1.18,.03-2.36-.01-3.54-.01-.31,.12-.7-.21-.96l.32-.5s.01-.03,.01-.05h0s.05-.07,.06-.11h0c.52-.64,.98-1.33,1.46-2,.52-.72,1.04-1.45,1.57-2.17,.74-1.01,1.46-2.04,2.19-3.07,.03-.04,.05-.07,.11-.07,0,.02,0,.03,0,.05Z"/>
      <path class="cls-16" d="M432.35,153.97c1.05-.34,2.1-.68,3.16-1.03,1.99-.65,3.98-1.3,5.97-1.95,.57-.19,1.15-.38,1.72-.57,.02,.04,.06,.09,.05,.13-.17,.46,.4,.78,.24,1.24,0,.02,.02,.05,.04,.07,.21,.32,.36,.67,.46,1.04,.05,.19,.13,.41,.27,.54,.17,.16,.2,.27,.08,.46-.03,.05-.11,.18-.02,.23,.07,.04,.18,.09,.28,.04,.08-.04,.16-.09,.26-.06-.72,.64-1.5,1.2-2.25,1.82-.44,.37-.9,.72-1.34,1.08-.54-.11-1.05-.32-1.57-.49-.82-.26-1.64-.54-2.46-.81-1.46-.48-2.92-.95-4.38-1.42-.21-.07-.41-.13-.62-.19,0-.08,.07-.1,.13-.14Z"/>
      <path class="cls-16" d="M410.77,147.18c.46,.01,.87,.22,1.29,.35,1.88,.6,3.76,1.23,5.64,1.84,1.86,.61,3.73,1.21,5.59,1.82,.07,.02,.13,.06,.2,.08-.01,.09,0,.17,.05,.25,0,0,0,.02-.01,.02,0,0,0-.02,.01-.02,.2,0,.3,.06,.16,.25-.09,.13-.1,.27-.1,.42,0,.86,.02,1.72,0,2.58-.01,.52,.1,1.06-.08,1.58-.01,.03,.02,.09,.05,.12,.16,.16,.06,.23-.09,.33-.1,.07-.3,0-.31,.2-.02,.01-.04,.03-.06,.04-.02,0-.04,0-.06,0-1.6-1.27-3.19-2.55-4.79-3.82-2.11-1.69-4.22-3.37-6.33-5.06-.39-.31-.82-.58-1.15-.96Z"/>
      <path class="cls-14" d="M426.78,161.64c-.11,.17-.22,.33-.32,.5-.61,.79-1.15,1.62-1.76,2.41-.52,.69-.99,1.42-1.49,2.12-1.18,1.65-2.35,3.3-3.54,4.94-.18,.24-.31,.54-.58,.7,.07-.52,.24-1.01,.37-1.51,.45-1.76,.91-3.53,1.37-5.29,.21-.8,.43-1.59,.64-2.38,.31-1.18,.61-2.36,.92-3.54,.15-.57,.31-1.13,.46-1.69,.06-.21,.02-.46,.19-.64-.17,.42,.26,.48,.42,.7,.48,.63,1.11,1.13,1.64,1.73,.33,.39,.68,.77,1.11,1.07,.07,.05,.12,.11,.14,.2,.03,.13,.08,.18,.25,.16,.26-.04,.22,.2,.24,.36,0,0,0,0,0,0-.05,.02-.06,.06-.06,.11,0,0,0,0,0,0,0,0-.02,0-.02,.01,0,.01,0,.03,.01,.04Z"/>
      <path class="cls-14" d="M432.01,154.02c-.49-.79-1.06-1.53-1.59-2.29-.69-1-1.4-1.98-2.11-2.97-.48-.68-.97-1.35-1.45-2.02-.04-.05-.06-.11-.09-.17,0,0,0,0,0,0,.06-.02,.07-.06,.05-.11,0-.02,0-.04,.01-.05,0,0,.01,0,.02-.01,0-.01-.01-.02-.02-.04,.29-.75,.59-1.5,.88-2.26,.07,.12,.13,.17,.3,.14,.31-.06,.63-.06,.92-.19,.02,0,.04,0,.05,0,.26-.27,.58-.29,.92-.22,.02,0,.05,0,.05,0,.2-.34,.59-.15,.82-.29,.37-.23,.81-.11,1.14-.36,.09-.07,.12-.03,.15,.06,.04,.1,.04,.19,.04,.3,0,3.43,0,6.85,0,10.28,0,.11,.04,.25-.11,.31,0-.03,0-.06,0-.09Z"/>
      <path class="cls-12" d="M444.84,154.11c-.1-.02-.18,.02-.26,.06-.1,.05-.21,0-.28-.04-.09-.05,0-.18,.02-.23,.12-.19,.09-.3-.08-.46-.14-.13-.22-.35-.27-.54-.1-.37-.25-.72-.46-1.04-.01-.02-.04-.05-.04-.07,.16-.46-.41-.77-.24-1.24,.01-.03-.03-.08-.05-.13,1.4-.46,2.8-.93,4.2-1.39,1.75-.58,3.51-1.16,5.26-1.74,.26-.09,.52-.17,.78-.26,.07,0,.15-.01,.24,.05-.22,.18-.43,.35-.64,.52-1.41,1.12-2.82,2.25-4.23,3.37-1.19,.95-2.37,1.89-3.56,2.84-.04,.03-.08,.05-.12,.07-.02,.02-.04,.03-.06,.05,0,0,0,0,0,0-.02,.02-.04,.03-.05,.05,0,0,0,0,0,0-.05,0-.08,.01-.09,.07,0,0,0,0,0,0-.02,.02-.04,.03-.06,.05h0Z"/>
      <path class="cls-12" d="M419.09,172.31c.27-.17,.4-.46,.58-.7,1.19-1.64,2.37-3.29,3.54-4.94,.5-.7,.96-1.44,1.49-2.12,.6-.79,1.15-1.62,1.76-2.41,.32,.26,.19,.65,.21,.96,.04,1.18,.02,2.36,.01,3.54,0,.32-.08,.64-.05,.96-.18,.22-.45,.33-.69,.49-.6,.4-1.21,.79-1.82,1.18-1.62,1.05-3.23,2.1-4.85,3.15-.06,.04-.13,.07-.19,.11-.08-.08-.02-.15,.01-.22Zm7.29-9.69s-.03-.02-.05-.02c-.01,0-.01,.03-.02,.04,.02,0,.03,.02,.05,.02,.01,0,.01-.03,.02-.04Z"/>
      <path class="cls-16" d="M439.72,168.97c.03-.15-.02-.31,.13-.45,.08-.07,.08-.24,.08-.36,0-.73,0-1.46,0-2.19,0-.16,.02-.31-.08-.46-.08-.12,.11-.19,.15-.3,.76,1.08,1.55,2.14,2.3,3.22,.94,1.35,1.92,2.67,2.88,4,.07,.16-.02,.08-.07,.05-.46-.3-.92-.59-1.38-.89-1.3-.84-2.6-1.69-3.9-2.53-.04-.02-.07-.06-.1-.09Z"/>
      <path class="cls-20" d="M437.09,145.48c-.06-.02-.07-.07-.06-.13,.06,.02,.11,.05,.06,.13Z"/>
      <path class="cls-14" d="M423.05,157.03s.04,0,.06,0c0,.06,0,.12-.06,.16,0-.05,0-.11,0-.16Z"/>
      <path class="cls-20" d="M426.83,146.45c.01,.05,0,.09-.05,.11,0-.04,.01-.08,.05-.11Z"/>
      <path class="cls-16" d="M444.9,154.06c0-.05,.05-.06,.09-.07-.01,.05-.05,.06-.09,.07Z"/>
      <path class="cls-20" d="M436.97,145.19s-.03-.05-.04-.07c.01,.02,.03,.05,.04,.07Z"/>
      <path class="cls-20" d="M426.84,146.35s.01,.02,.02,.04c0,0-.01,0-.02,.01,0-.02,0-.03,0-.05Z"/>
      <path class="cls-16" d="M445.06,153.94s.04-.03,.06-.05c-.02,.02-.04,.03-.06,.05Z"/>
      <path class="cls-16" d="M445,153.99s.04-.03,.05-.05c0,.03-.02,.05-.05,.05Z"/>
      <path class="cls-16" d="M444.84,154.11s.04-.03,.06-.05c-.02,.02-.04,.03-.06,.05Z"/>
      <path class="cls-12" d="M432.01,154.02s0,.06,0,.09c-1.17,.38-2.34,.77-3.52,1.15-1.73,.57-3.45,1.13-5.18,1.7-.05,.02-.11,.02-.16,.03,.01-.2,.21-.13,.31-.2,.14-.1,.25-.17,.09-.33-.03-.03-.06-.09-.05-.12,.19-.52,.07-1.05,.08-1.58,.02-.86,0-1.72,0-2.58,0-.15,.01-.29,.1-.42,.14-.19,.04-.26-.16-.25h0c-.04-.08-.06-.16-.05-.25,1.07,.34,2.14,.68,3.21,1.03,1.69,.55,3.38,1.1,5.07,1.65,.08,.03,.16,.04,.24,.06Z"/>
      <path class="cls-15" d="M426.79,161.59s0-.09,.06-.11c0,.04,0,.09-.06,.11Z"/>
      <path class="cls-15" d="M426.78,161.64s-.01-.03-.01-.04c0,0,.01,0,.02-.01,0,.02,0,.03-.01,.05Z"/>
      <path class="cls-12" d="M423.54,151.52s0,.02-.01,.02c0,0,0-.02,.01-.02h0Z"/>
      <path class="cls-16" d="M426.39,162.62s0,.04-.02,.04c-.01,0-.03-.01-.05-.02,0-.02,0-.04,.02-.04,.01,0,.03,.01,.05,.02Z"/>
    </g>
    <g>
      <path class="cls-15" d="M469.67,157.27s0-.05,0-.08c.06-.04,.06-.1,.06-.16,.02-.01,.04-.03,.06-.04,.05-.01,.11-.02,.16-.03,1.73-.57,3.45-1.13,5.18-1.7,1.17-.38,2.34-.77,3.52-1.15,.15-.06,.11-.19,.11-.31,0-3.43,0-6.85,0-10.28,0-.1,0-.2-.04-.3-.03-.09-.06-.12-.15-.06-.33,.25-.78,.13-1.14,.36-.22,.14-.62-.05-.82,.29,0,.01-.04,.01-.05,0-.34-.07-.66-.05-.92,.22,0,0-.04,0-.05,0-.3,.13-.62,.13-.92,.19-.17,.03-.23-.02-.3-.14,.21-.68,.49-1.34,.75-2,.65-1.73,1.31-3.45,1.97-5.18,.52-1.36,1.03-2.72,1.55-4.07,.03-.08,.07-.15,.11-.22,.11,.02,.11,.12,.14,.19,.36,.92,.71,1.84,1.06,2.76,.56,1.47,1.13,2.94,1.69,4.41,.09,.24,.14,.49,.24,.72,.59,1.37,1.11,2.78,1.64,4.17,.03,.08,.04,.16,.06,.24,.01,.02,.03,.05,.04,.07,.02,.05,.04,.11,.06,.16-.01,.06,0,.1,.06,.13,0,.04,.02,.07,.03,.11-.08,.24,.12,.42,.16,.63,.05,.22,.2,.45,.05,.67-.17,.26-.37,.51-.55,.77-.45,.62-.91,1.25-1.36,1.87-.45,.62-.92,1.22-1.34,1.85-.34,.51-.72,1-1.05,1.52-.23,.36-.55,.66-.69,1.07-.06,.03-.12,.06-.13,.14-.02,.02-.03,.04-.05,.06-.05,0-.08,.03-.11,.07-.73,1.02-1.44,2.05-2.19,3.07-.53,.72-1.05,1.45-1.57,2.17-.49,.67-.94,1.36-1.46,2-.02-.16,.01-.4-.24-.36-.17,.03-.22-.03-.25-.16-.02-.09-.08-.15-.14-.2-.42-.3-.77-.69-1.11-1.07-.52-.6-1.16-1.1-1.64-1.73-.16-.21-.6-.28-.42-.7Z"/>
      <path class="cls-20" d="M478.79,154.17s.03-.04,.05-.06c.21,.06,.42,.12,.62,.19,1.46,.47,2.92,.95,4.38,1.42,.82,.27,1.64,.55,2.46,.81,.52,.17,1.03,.38,1.57,.49,.16,.65,.31,1.31,.48,1.96,.22,.85,.45,1.7,.68,2.56,.43,1.63,.86,3.26,1.28,4.89,.32,1.23,.61,2.46,.93,3.68,.17,.67,.36,1.33,.53,2,.03,.11,.11,.22,.03,.34-.96-1.33-1.94-2.65-2.88-4-.75-1.09-1.55-2.14-2.3-3.22-.89-1.26-1.78-2.52-2.67-3.78-.6-.85-1.21-1.7-1.81-2.55-.63-.88-1.25-1.76-1.88-2.64-.48-.68-.97-1.35-1.46-2.03,0-.02,0-.03,0-.05Z"/>
      <path class="cls-20" d="M457.4,147.18c-.06-.04-.12-.08-.2-.13,.12-.06,.25-.05,.37-.04,1.06,.03,2.13-.04,3.19-.07,.63-.02,1.26-.02,1.89-.04,1.56-.06,3.11-.09,4.67-.13,1.3-.03,2.6-.08,3.9-.1,.73,0,1.46-.07,2.19-.11,.03,.06,.05,.12,.09,.17,.48,.67,.97,1.35,1.45,2.02,.7,.99,1.41,1.98,2.11,2.97,.53,.76,1.1,1.5,1.59,2.29-.08-.02-.16-.04-.24-.06-1.69-.55-3.38-1.1-5.07-1.65-1.07-.35-2.14-.69-3.21-1.03-.07-.03-.13-.06-.2-.08-1.86-.61-3.73-1.21-5.59-1.82-1.88-.61-3.76-1.24-5.64-1.84-.42-.14-.83-.34-1.29-.35Z"/>
      <path class="cls-20" d="M478.97,153.97c.14-.41,.46-.72,.69-1.07,.33-.52,.71-1.01,1.05-1.52,.42-.63,.89-1.24,1.34-1.85,.45-.62,.91-1.25,1.36-1.87,.19-.26,.38-.51,.55-.77,.15-.23,0-.45-.05-.67-.05-.21-.25-.38-.16-.63,.17,.21,.21,.48,.32,.72,.09,.2,.2,.28,.42,.28,1.59,.02,3.18,.09,4.77,.12,1.33,.03,2.67,.06,4,.11,1.36,.05,2.72,.06,4.09,.11,.9,.04,1.81,0,2.71,.12-.26,.09-.52,.17-.78,.26-1.75,.58-3.51,1.16-5.26,1.74-1.4,.46-2.8,.93-4.2,1.39-.57,.19-1.14,.38-1.72,.57-1.99,.65-3.98,1.3-5.97,1.95-1.05,.34-2.1,.69-3.16,1.03Z"/>
      <path class="cls-12" d="M478.79,154.22c.49,.68,.98,1.35,1.46,2.03,.63,.88,1.25,1.76,1.88,2.64,.6,.85,1.21,1.7,1.81,2.55,.89,1.26,1.78,2.52,2.67,3.78-.04,.11-.23,.17-.15,.3,.1,.15,.08,.3,.08,.46,0,.73,0,1.46,0,2.19,0,.12,0,.29-.08,.36-.15,.14-.1,.3-.13,.45-.61-.39-1.23-.78-1.84-1.18-1.7-1.09-3.39-2.19-5.08-3.28-.22-.14-.44-.29-.66-.44,0-3.22,0-6.43,0-9.65,0-.07-.02-.15,.05-.21Z"/>
      <path class="cls-16" d="M478.79,154.22c-.06,.06-.05,.14-.05,.21,0,3.22,0,6.43,0,9.65-1.77,1.15-3.54,2.29-5.3,3.44-.06,.04-.12,.09-.2,.08-.03-.32,.05-.64,.05-.96,0-1.18,.03-2.36-.01-3.54-.01-.31,.12-.7-.21-.96l.32-.5s.01-.03,.01-.05h0s.05-.07,.06-.11h0c.52-.64,.98-1.33,1.46-2,.52-.72,1.04-1.45,1.57-2.17,.74-1.01,1.46-2.04,2.19-3.07,.03-.04,.05-.07,.11-.07,0,.02,0,.03,0,.05Z"/>
      <path class="cls-16" d="M478.97,153.97c1.05-.34,2.1-.68,3.16-1.03,1.99-.65,3.98-1.3,5.97-1.95,.57-.19,1.15-.38,1.72-.57,.02,.04,.06,.09,.05,.13-.17,.46,.4,.78,.24,1.24,0,.02,.02,.05,.04,.07,.21,.32,.36,.67,.46,1.04,.05,.19,.13,.41,.27,.54,.17,.16,.2,.27,.08,.46-.03,.05-.11,.18-.02,.23,.07,.04,.18,.09,.28,.04,.08-.04,.16-.09,.26-.06-.72,.64-1.5,1.2-2.25,1.82-.44,.37-.9,.72-1.34,1.08-.54-.11-1.05-.32-1.57-.49-.82-.26-1.64-.54-2.46-.81-1.46-.48-2.92-.95-4.38-1.42-.21-.07-.41-.13-.62-.19,0-.08,.07-.1,.13-.14Z"/>
      <path class="cls-16" d="M457.4,147.18c.46,.01,.87,.22,1.29,.35,1.88,.6,3.76,1.23,5.64,1.84,1.86,.61,3.73,1.21,5.59,1.82,.07,.02,.13,.06,.2,.08-.01,.09,0,.17,.05,.25,0,0,0,.02-.01,.02,0,0,0-.02,.01-.02,.2,0,.3,.06,.16,.25-.09,.13-.1,.27-.1,.42,0,.86,.02,1.72,0,2.58-.01,.52,.1,1.06-.08,1.58-.01,.03,.02,.09,.05,.12,.16,.16,.06,.23-.09,.33-.1,.07-.3,0-.31,.2-.02,.01-.04,.03-.06,.04-.02,0-.04,0-.06,0-1.6-1.27-3.19-2.55-4.79-3.82-2.11-1.69-4.22-3.37-6.33-5.06-.39-.31-.82-.58-1.15-.96Z"/>
      <path class="cls-14" d="M473.41,161.64c-.11,.17-.22,.33-.32,.5-.61,.79-1.15,1.62-1.76,2.41-.52,.69-.99,1.42-1.49,2.12-1.18,1.65-2.35,3.3-3.54,4.94-.18,.24-.31,.54-.58,.7,.07-.52,.24-1.01,.37-1.51,.45-1.76,.91-3.53,1.37-5.29,.21-.8,.43-1.59,.64-2.38,.31-1.18,.61-2.36,.92-3.54,.15-.57,.31-1.13,.46-1.69,.06-.21,.02-.46,.19-.64-.17,.42,.26,.48,.42,.7,.48,.63,1.11,1.13,1.64,1.73,.33,.39,.68,.77,1.11,1.07,.07,.05,.12,.11,.14,.2,.03,.13,.08,.18,.25,.16,.26-.04,.22,.2,.24,.36,0,0,0,0,0,0-.05,.02-.06,.06-.06,.11,0,0,0,0,0,0,0,0-.02,0-.02,.01,0,.01,0,.03,.01,.04Z"/>
      <path class="cls-14" d="M478.64,154.02c-.49-.79-1.06-1.53-1.59-2.29-.69-1-1.4-1.98-2.11-2.97-.48-.68-.97-1.35-1.45-2.02-.04-.05-.06-.11-.09-.17,0,0,0,0,0,0,.06-.02,.07-.06,.05-.11,0-.02,0-.04,.01-.05,0,0,.01,0,.02-.01,0-.01-.01-.02-.02-.04,.29-.75,.59-1.5,.88-2.26,.07,.12,.13,.17,.3,.14,.31-.06,.63-.06,.92-.19,.02,0,.04,0,.05,0,.26-.27,.58-.29,.92-.22,.02,0,.05,0,.05,0,.2-.34,.59-.15,.82-.29,.37-.23,.81-.11,1.14-.36,.09-.07,.12-.03,.15,.06,.04,.1,.04,.19,.04,.3,0,3.43,0,6.85,0,10.28,0,.11,.04,.25-.11,.31,0-.03,0-.06,0-.09Z"/>
      <path class="cls-12" d="M491.46,154.11c-.1-.02-.18,.02-.26,.06-.1,.05-.21,0-.28-.04-.09-.05,0-.18,.02-.23,.12-.19,.09-.3-.08-.46-.14-.13-.22-.35-.27-.54-.1-.37-.25-.72-.46-1.04-.01-.02-.04-.05-.04-.07,.16-.46-.41-.77-.24-1.24,.01-.03-.03-.08-.05-.13,1.4-.46,2.8-.93,4.2-1.39,1.75-.58,3.51-1.16,5.26-1.74,.26-.09,.52-.17,.78-.26,.07,0,.15-.01,.24,.05-.22,.18-.43,.35-.64,.52-1.41,1.12-2.82,2.25-4.23,3.37-1.19,.95-2.37,1.89-3.56,2.84-.04,.03-.08,.05-.12,.07-.02,.02-.04,.03-.06,.05,0,0,0,0,0,0-.02,.02-.04,.03-.05,.05,0,0,0,0,0,0-.05,0-.08,.01-.09,.07,0,0,0,0,0,0-.02,.02-.04,.03-.06,.05h0Z"/>
      <path class="cls-12" d="M465.71,172.31c.27-.17,.4-.46,.58-.7,1.19-1.64,2.37-3.29,3.54-4.94,.5-.7,.96-1.44,1.49-2.12,.6-.79,1.15-1.62,1.76-2.41,.32,.26,.19,.65,.21,.96,.04,1.18,.02,2.36,.01,3.54,0,.32-.08,.64-.05,.96-.18,.22-.45,.33-.69,.49-.6,.4-1.21,.79-1.82,1.18-1.62,1.05-3.23,2.1-4.85,3.15-.06,.04-.13,.07-.19,.11-.08-.08-.02-.15,.01-.22Zm7.29-9.69s-.03-.02-.05-.02c-.01,0-.01,.03-.02,.04,.02,0,.03,.02,.05,.02,.01,0,.01-.03,.02-.04Z"/>
      <path class="cls-16" d="M486.34,168.97c.03-.15-.02-.31,.13-.45,.08-.07,.08-.24,.08-.36,0-.73,0-1.46,0-2.19,0-.16,.02-.31-.08-.46-.08-.12,.11-.19,.15-.3,.76,1.08,1.55,2.14,2.3,3.22,.94,1.35,1.92,2.67,2.88,4,.07,.16-.02,.08-.07,.05-.46-.3-.92-.59-1.38-.89-1.3-.84-2.6-1.69-3.9-2.53-.04-.02-.07-.06-.1-.09Z"/>
      <path class="cls-20" d="M483.72,145.48c-.06-.02-.07-.07-.06-.13,.06,.02,.11,.05,.06,.13Z"/>
      <path class="cls-14" d="M469.67,157.03s.04,0,.06,0c0,.06,0,.12-.06,.16,0-.05,0-.11,0-.16Z"/>
      <path class="cls-20" d="M473.45,146.45c.01,.05,0,.09-.05,.11,0-.04,.01-.08,.05-.11Z"/>
      <path class="cls-16" d="M491.52,154.06c0-.05,.05-.06,.09-.07-.01,.05-.05,.06-.09,.07Z"/>
      <path class="cls-20" d="M483.59,145.19s-.03-.05-.04-.07c.01,.02,.03,.05,.04,.07Z"/>
      <path class="cls-20" d="M473.47,146.35s.01,.02,.02,.04c0,0-.01,0-.02,.01,0-.02,0-.03,0-.05Z"/>
      <path class="cls-16" d="M491.68,153.94s.04-.03,.06-.05c-.02,.02-.04,.03-.06,.05Z"/>
      <path class="cls-16" d="M491.62,153.99s.04-.03,.05-.05c0,.03-.02,.05-.05,.05Z"/>
      <path class="cls-16" d="M491.46,154.11s.04-.03,.06-.05c-.02,.02-.04,.03-.06,.05Z"/>
      <path class="cls-12" d="M478.64,154.02s0,.06,0,.09c-1.17,.38-2.34,.77-3.52,1.15-1.73,.57-3.45,1.13-5.18,1.7-.05,.02-.11,.02-.16,.03,.01-.2,.21-.13,.31-.2,.14-.1,.25-.17,.09-.33-.03-.03-.06-.09-.05-.12,.19-.52,.07-1.05,.08-1.58,.02-.86,0-1.72,0-2.58,0-.15,.01-.29,.1-.42,.14-.19,.04-.26-.16-.25h0c-.04-.08-.06-.16-.05-.25,1.07,.34,2.14,.68,3.21,1.03,1.69,.55,3.38,1.1,5.07,1.65,.08,.03,.16,.04,.24,.06Z"/>
      <path class="cls-15" d="M473.41,161.59s0-.09,.06-.11c0,.04,0,.09-.06,.11Z"/>
      <path class="cls-15" d="M473.41,161.64s-.01-.03-.01-.04c0,0,.01,0,.02-.01,0,.02,0,.03-.01,.05Z"/>
      <path class="cls-12" d="M470.17,151.52s0,.02-.01,.02c0,0,0-.02,.01-.02h0Z"/>
      <path class="cls-16" d="M473.01,162.62s0,.04-.02,.04c-.01,0-.03-.01-.05-.02,0-.02,0-.04,.02-.04,.01,0,.03,.01,.05,.02Z"/>
    </g>
    <g>
      <path class="cls-15" d="M516.29,157.27s0-.05,0-.08c.06-.04,.06-.1,.06-.16,.02-.01,.04-.03,.06-.04,.05-.01,.11-.02,.16-.03,1.73-.57,3.45-1.13,5.18-1.7,1.17-.38,2.34-.77,3.52-1.15,.15-.06,.11-.19,.11-.31,0-3.43,0-6.85,0-10.28,0-.1,0-.2-.04-.3-.03-.09-.06-.12-.15-.06-.33,.25-.78,.13-1.14,.36-.22,.14-.62-.05-.82,.29,0,.01-.04,.01-.05,0-.34-.07-.66-.05-.92,.22,0,0-.04,0-.05,0-.3,.13-.62,.13-.92,.19-.17,.03-.23-.02-.3-.14,.21-.68,.49-1.34,.75-2,.65-1.73,1.31-3.45,1.97-5.18,.52-1.36,1.03-2.72,1.55-4.07,.03-.08,.07-.15,.11-.22,.11,.02,.11,.12,.14,.19,.36,.92,.71,1.84,1.06,2.76,.56,1.47,1.13,2.94,1.69,4.41,.09,.24,.14,.49,.24,.72,.59,1.37,1.11,2.78,1.64,4.17,.03,.08,.04,.16,.06,.24,.01,.02,.03,.05,.04,.07,.02,.05,.04,.11,.06,.16-.01,.06,0,.1,.06,.13,0,.04,.02,.07,.03,.11-.08,.24,.12,.42,.16,.63,.05,.22,.2,.45,.05,.67-.17,.26-.37,.51-.55,.77-.45,.62-.91,1.25-1.36,1.87-.45,.62-.92,1.22-1.34,1.85-.34,.51-.72,1-1.05,1.52-.23,.36-.55,.66-.69,1.07-.06,.03-.12,.06-.13,.14-.02,.02-.03,.04-.05,.06-.05,0-.08,.03-.11,.07-.73,1.02-1.44,2.05-2.19,3.07-.53,.72-1.05,1.45-1.57,2.17-.49,.67-.94,1.36-1.46,2-.02-.16,.01-.4-.24-.36-.17,.03-.22-.03-.25-.16-.02-.09-.08-.15-.14-.2-.42-.3-.77-.69-1.11-1.07-.52-.6-1.16-1.1-1.64-1.73-.16-.21-.6-.28-.42-.7Z"/>
      <path class="cls-20" d="M525.42,154.17s.03-.04,.05-.06c.21,.06,.42,.12,.62,.19,1.46,.47,2.92,.95,4.38,1.42,.82,.27,1.64,.55,2.46,.81,.52,.17,1.03,.38,1.57,.49,.16,.65,.31,1.31,.48,1.96,.22,.85,.45,1.7,.68,2.56,.43,1.63,.86,3.26,1.28,4.89,.32,1.23,.61,2.46,.93,3.68,.17,.67,.36,1.33,.53,2,.03,.11,.11,.22,.03,.34-.96-1.33-1.94-2.65-2.88-4-.75-1.09-1.55-2.14-2.3-3.22-.89-1.26-1.78-2.52-2.67-3.78-.6-.85-1.21-1.7-1.81-2.55-.63-.88-1.25-1.76-1.88-2.64-.48-.68-.97-1.35-1.46-2.03,0-.02,0-.03,0-.05Z"/>
      <path class="cls-20" d="M504.02,147.18c-.06-.04-.12-.08-.2-.13,.12-.06,.25-.05,.37-.04,1.06,.03,2.13-.04,3.19-.07,.63-.02,1.26-.02,1.89-.04,1.56-.06,3.11-.09,4.67-.13,1.3-.03,2.6-.08,3.9-.1,.73,0,1.46-.07,2.19-.11,.03,.06,.05,.12,.09,.17,.48,.67,.97,1.35,1.45,2.02,.7,.99,1.41,1.98,2.11,2.97,.53,.76,1.1,1.5,1.59,2.29-.08-.02-.16-.04-.24-.06-1.69-.55-3.38-1.1-5.07-1.65-1.07-.35-2.14-.69-3.21-1.03-.07-.03-.13-.06-.2-.08-1.86-.61-3.73-1.21-5.59-1.82-1.88-.61-3.76-1.24-5.64-1.84-.42-.14-.83-.34-1.29-.35Z"/>
      <path class="cls-20" d="M525.59,153.97c.14-.41,.46-.72,.69-1.07,.33-.52,.71-1.01,1.05-1.52,.42-.63,.89-1.24,1.34-1.85,.45-.62,.91-1.25,1.36-1.87,.19-.26,.38-.51,.55-.77,.15-.23,0-.45-.05-.67-.05-.21-.25-.38-.16-.63,.17,.21,.21,.48,.32,.72,.09,.2,.2,.28,.42,.28,1.59,.02,3.18,.09,4.77,.12,1.33,.03,2.67,.06,4,.11,1.36,.05,2.72,.06,4.09,.11,.9,.04,1.81,0,2.71,.12-.26,.09-.52,.17-.78,.26-1.75,.58-3.51,1.16-5.26,1.74-1.4,.46-2.8,.93-4.2,1.39-.57,.19-1.14,.38-1.72,.57-1.99,.65-3.98,1.3-5.97,1.95-1.05,.34-2.1,.69-3.16,1.03Z"/>
      <path class="cls-12" d="M525.42,154.22c.49,.68,.98,1.35,1.46,2.03,.63,.88,1.25,1.76,1.88,2.64,.6,.85,1.21,1.7,1.81,2.55,.89,1.26,1.78,2.52,2.67,3.78-.04,.11-.23,.17-.15,.3,.1,.15,.08,.3,.08,.46,0,.73,0,1.46,0,2.19,0,.12,0,.29-.08,.36-.15,.14-.1,.3-.13,.45-.61-.39-1.23-.78-1.84-1.18-1.7-1.09-3.39-2.19-5.08-3.28-.22-.14-.44-.29-.66-.44,0-3.22,0-6.43,0-9.65,0-.07-.02-.15,.05-.21Z"/>
      <path class="cls-16" d="M525.42,154.22c-.06,.06-.05,.14-.05,.21,0,3.22,0,6.43,0,9.65-1.77,1.15-3.54,2.29-5.3,3.44-.06,.04-.12,.09-.2,.08-.03-.32,.05-.64,.05-.96,0-1.18,.03-2.36-.01-3.54-.01-.31,.12-.7-.21-.96l.32-.5s.01-.03,.01-.05h0s.05-.07,.06-.11h0c.52-.64,.98-1.33,1.46-2,.52-.72,1.04-1.45,1.57-2.17,.74-1.01,1.46-2.04,2.19-3.07,.03-.04,.05-.07,.11-.07,0,.02,0,.03,0,.05Z"/>
      <path class="cls-16" d="M525.59,153.97c1.05-.34,2.1-.68,3.16-1.03,1.99-.65,3.98-1.3,5.97-1.95,.57-.19,1.15-.38,1.72-.57,.02,.04,.06,.09,.05,.13-.17,.46,.4,.78,.24,1.24,0,.02,.02,.05,.04,.07,.21,.32,.36,.67,.46,1.04,.05,.19,.13,.41,.27,.54,.17,.16,.2,.27,.08,.46-.03,.05-.11,.18-.02,.23,.07,.04,.18,.09,.28,.04,.08-.04,.16-.09,.26-.06-.72,.64-1.5,1.2-2.25,1.82-.44,.37-.9,.72-1.34,1.08-.54-.11-1.05-.32-1.57-.49-.82-.26-1.64-.54-2.46-.81-1.46-.48-2.92-.95-4.38-1.42-.21-.07-.41-.13-.62-.19,0-.08,.07-.1,.13-.14Z"/>
      <path class="cls-16" d="M504.02,147.18c.46,.01,.87,.22,1.29,.35,1.88,.6,3.76,1.23,5.64,1.84,1.86,.61,3.73,1.21,5.59,1.82,.07,.02,.13,.06,.2,.08-.01,.09,0,.17,.05,.25,0,0,0,.02-.01,.02,0,0,0-.02,.01-.02,.2,0,.3,.06,.16,.25-.09,.13-.1,.27-.1,.42,0,.86,.02,1.72,0,2.58-.01,.52,.1,1.06-.08,1.58-.01,.03,.02,.09,.05,.12,.16,.16,.06,.23-.09,.33-.1,.07-.3,0-.31,.2-.02,.01-.04,.03-.06,.04-.02,0-.04,0-.06,0-1.6-1.27-3.19-2.55-4.79-3.82-2.11-1.69-4.22-3.37-6.33-5.06-.39-.31-.82-.58-1.15-.96Z"/>
      <path class="cls-14" d="M520.03,161.64c-.11,.17-.22,.33-.32,.5-.61,.79-1.15,1.62-1.76,2.41-.52,.69-.99,1.42-1.49,2.12-1.18,1.65-2.35,3.3-3.54,4.94-.18,.24-.31,.54-.58,.7,.07-.52,.24-1.01,.37-1.51,.45-1.76,.91-3.53,1.37-5.29,.21-.8,.43-1.59,.64-2.38,.31-1.18,.61-2.36,.92-3.54,.15-.57,.31-1.13,.46-1.69,.06-.21,.02-.46,.19-.64-.17,.42,.26,.48,.42,.7,.48,.63,1.11,1.13,1.64,1.73,.33,.39,.68,.77,1.11,1.07,.07,.05,.12,.11,.14,.2,.03,.13,.08,.18,.25,.16,.26-.04,.22,.2,.24,.36,0,0,0,0,0,0-.05,.02-.06,.06-.06,.11,0,0,0,0,0,0,0,0-.02,0-.02,.01,0,.01,0,.03,.01,.04Z"/>
      <path class="cls-14" d="M525.26,154.02c-.49-.79-1.06-1.53-1.59-2.29-.69-1-1.4-1.98-2.11-2.97-.48-.68-.97-1.35-1.45-2.02-.04-.05-.06-.11-.09-.17,0,0,0,0,0,0,.06-.02,.07-.06,.05-.11,0-.02,0-.04,.01-.05,0,0,.01,0,.02-.01,0-.01-.01-.02-.02-.04,.29-.75,.59-1.5,.88-2.26,.07,.12,.13,.17,.3,.14,.31-.06,.63-.06,.92-.19,.02,0,.04,0,.05,0,.26-.27,.58-.29,.92-.22,.02,0,.05,0,.05,0,.2-.34,.59-.15,.82-.29,.37-.23,.81-.11,1.14-.36,.09-.07,.12-.03,.15,.06,.04,.1,.04,.19,.04,.3,0,3.43,0,6.85,0,10.28,0,.11,.04,.25-.11,.31,0-.03,0-.06,0-.09Z"/>
      <path class="cls-12" d="M538.08,154.11c-.1-.02-.18,.02-.26,.06-.1,.05-.21,0-.28-.04-.09-.05,0-.18,.02-.23,.12-.19,.09-.3-.08-.46-.14-.13-.22-.35-.27-.54-.1-.37-.25-.72-.46-1.04-.01-.02-.04-.05-.04-.07,.16-.46-.41-.77-.24-1.24,.01-.03-.03-.08-.05-.13,1.4-.46,2.8-.93,4.2-1.39,1.75-.58,3.51-1.16,5.26-1.74,.26-.09,.52-.17,.78-.26,.07,0,.15-.01,.24,.05-.22,.18-.43,.35-.64,.52-1.41,1.12-2.82,2.25-4.23,3.37-1.19,.95-2.37,1.89-3.56,2.84-.04,.03-.08,.05-.12,.07-.02,.02-.04,.03-.06,.05,0,0,0,0,0,0-.02,.02-.04,.03-.05,.05,0,0,0,0,0,0-.05,0-.08,.01-.09,.07,0,0,0,0,0,0-.02,.02-.04,.03-.06,.05h0Z"/>
      <path class="cls-12" d="M512.34,172.31c.27-.17,.4-.46,.58-.7,1.19-1.64,2.37-3.29,3.54-4.94,.5-.7,.96-1.44,1.49-2.12,.6-.79,1.15-1.62,1.76-2.41,.32,.26,.19,.65,.21,.96,.04,1.18,.02,2.36,.01,3.54,0,.32-.08,.64-.05,.96-.18,.22-.45,.33-.69,.49-.6,.4-1.21,.79-1.82,1.18-1.62,1.05-3.23,2.1-4.85,3.15-.06,.04-.13,.07-.19,.11-.08-.08-.02-.15,.01-.22Zm7.29-9.69s-.03-.02-.05-.02c-.01,0-.01,.03-.02,.04,.02,0,.03,.02,.05,.02,.01,0,.01-.03,.02-.04Z"/>
      <path class="cls-16" d="M532.96,168.97c.03-.15-.02-.31,.13-.45,.08-.07,.08-.24,.08-.36,0-.73,0-1.46,0-2.19,0-.16,.02-.31-.08-.46-.08-.12,.11-.19,.15-.3,.76,1.08,1.55,2.14,2.3,3.22,.94,1.35,1.92,2.67,2.88,4,.07,.16-.02,.08-.07,.05-.46-.3-.92-.59-1.38-.89-1.3-.84-2.6-1.69-3.9-2.53-.04-.02-.07-.06-.1-.09Z"/>
      <path class="cls-20" d="M530.34,145.48c-.06-.02-.07-.07-.06-.13,.06,.02,.11,.05,.06,.13Z"/>
      <path class="cls-14" d="M516.29,157.03s.04,0,.06,0c0,.06,0,.12-.06,.16,0-.05,0-.11,0-.16Z"/>
      <path class="cls-20" d="M520.08,146.45c.01,.05,0,.09-.05,.11,0-.04,.01-.08,.05-.11Z"/>
      <path class="cls-16" d="M538.14,154.06c0-.05,.05-.06,.09-.07-.01,.05-.05,.06-.09,.07Z"/>
      <path class="cls-20" d="M530.21,145.19s-.03-.05-.04-.07c.01,.02,.03,.05,.04,.07Z"/>
      <path class="cls-20" d="M520.09,146.35s.01,.02,.02,.04c0,0-.01,0-.02,.01,0-.02,0-.03,0-.05Z"/>
      <path class="cls-16" d="M538.3,153.94s.04-.03,.06-.05c-.02,.02-.04,.03-.06,.05Z"/>
      <path class="cls-16" d="M538.25,153.99s.04-.03,.05-.05c0,.03-.02,.05-.05,.05Z"/>
      <path class="cls-16" d="M538.09,154.11s.04-.03,.06-.05c-.02,.02-.04,.03-.06,.05Z"/>
      <path class="cls-12" d="M525.26,154.02s0,.06,0,.09c-1.17,.38-2.34,.77-3.52,1.15-1.73,.57-3.45,1.13-5.18,1.7-.05,.02-.11,.02-.16,.03,.01-.2,.21-.13,.31-.2,.14-.1,.25-.17,.09-.33-.03-.03-.06-.09-.05-.12,.19-.52,.07-1.05,.08-1.58,.02-.86,0-1.72,0-2.58,0-.15,.01-.29,.1-.42,.14-.19,.04-.26-.16-.25h0c-.04-.08-.06-.16-.05-.25,1.07,.34,2.14,.68,3.21,1.03,1.69,.55,3.38,1.1,5.07,1.65,.08,.03,.16,.04,.24,.06Z"/>
      <path class="cls-15" d="M520.04,161.59s0-.09,.06-.11c0,.04,0,.09-.06,.11Z"/>
      <path class="cls-15" d="M520.03,161.64s-.01-.03-.01-.04c0,0,.01,0,.02-.01,0,.02,0,.03-.01,.05Z"/>
      <path class="cls-12" d="M516.79,151.52s0,.02-.01,.02c0,0,0-.02,.01-.02h0Z"/>
      <path class="cls-16" d="M519.63,162.62s0,.04-.02,.04c-.01,0-.03-.01-.05-.02,0-.02,0-.04,.02-.04,.01,0,.03,.01,.05,.02Z"/>
    </g>
  </g>
  <g>
    <path d="M548.33,247.25c-1.93-.17-3.6-1.36-4.37-3.12l-6.69-15.53-5.91,7.5c-.36,.46-.84,.82-1.38,1.06-.73,.31-1.53,.44-2.32,.38-2.8-.24-5-2.79-5-5.79l.49-46.68c0-1.49,.58-2.85,1.62-3.81,.96-.88,2.27-1.32,3.58-1.21,1.15,.1,2.24,.6,3.14,1.46l34.2,31.68c1.47,1.38,2.16,3.41,1.82,5.31-.3,1.69-1.38,3.09-2.9,3.75-.53,.23-1.12,.33-1.7,.28l-9.51-.83,6.66,15.48c.58,1.35,.56,2.89-.06,4.23-.57,1.23-1.58,2.21-2.87,2.76l-6.09,2.63c-.87,.37-1.82,.53-2.73,.45Z"/>
    <path class="cls-13" d="M527.96,180.04c.14,0,.27,0,.41,.02,1.15,.1,2.24,.6,3.14,1.46l34.2,31.68c1.47,1.38,2.16,3.41,1.82,5.31-.3,1.69-1.38,3.09-2.9,3.75-.44,.19-.92,.29-1.4,.29-.1,0-.2,0-.3-.01l-9.51-.83,6.66,15.48c.58,1.35,.56,2.89-.06,4.23-.57,1.23-1.58,2.21-2.87,2.76l-6.09,2.63c-.73,.31-1.5,.47-2.26,.47-.16,0-.31,0-.47-.02-1.93-.17-3.6-1.36-4.37-3.12l-6.69-15.53-5.91,7.5c-.36,.46-.84,.82-1.38,1.06-.6,.26-1.25,.39-1.91,.39-.14,0-.28,0-.41-.02-2.8-.24-5-2.79-5-5.79l.49-46.68c0-1.49,.58-2.85,1.62-3.81,.86-.79,2-1.23,3.18-1.23m0-1.4c-1.53,0-2.99,.57-4.12,1.59-1.33,1.22-2.07,2.94-2.07,4.84l-.49,46.66c0,3.74,2.76,6.89,6.28,7.19,.18,.02,.36,.02,.54,.02,.85,0,1.7-.18,2.46-.51,.75-.32,1.42-.83,1.92-1.47l4.45-5.66,5.76,13.37c.97,2.23,3.09,3.74,5.53,3.95,.2,.02,.39,.03,.59,.03,.96,0,1.91-.2,2.81-.58l6.1-2.63c1.6-.69,2.87-1.91,3.58-3.46,.79-1.7,.82-3.66,.08-5.37l-5.74-13.33,7.18,.62c.14,.01,.28,.02,.42,.02,.68,0,1.33-.14,1.95-.4,1.95-.84,3.34-2.63,3.72-4.79,.41-2.37-.45-4.88-2.24-6.57l-34.21-31.68c-1.13-1.06-2.51-1.69-3.97-1.82-.18-.02-.35-.02-.53-.02h0Z"/>
  </g>
  <path class="cls-17" d="M563.24,219.01l-15.39-1.33,9,20.9c.39,.9-.09,1.92-1.09,2.36l-6.09,2.62c-1,.43-2.07,.07-2.46-.83l-9.03-20.97-9.58,12.16c-1.08,.47-2.4-.69-2.4-2.17l.49-46.64c0-1.48,1.32-2.04,2.39-1.03l34.22,31.7c1.08,1.01,1.01,2.77-.07,3.23Z"/>
</svg>